<?xml version="1.0" encoding="UTF-8" standalone="no"?>
<svg xmlns="http://www.w3.org/2000/svg" viewBox="0 0 200 200" width="200" height="200">
  <!-- Background circle -->
  <circle cx="100" cy="100" r="95" fill="#4a6fa5" />
  
  <!-- Sherlock Holmes Silhouette -->
  <path d="M100,20 
           C90,20 80,25 75,35
           C70,45 72,55 70,65
           C68,75 60,80 55,85
           C50,90 45,95 45,100
           C45,105 50,110 55,115
           C60,120 65,125 65,130
           C65,135 60,140 55,145
           C50,150 45,155 45,160
           C45,165 50,170 55,175
           C60,180 70,180 80,180
           C90,180 110,180 120,180
           C130,180 140,180 145,175
           C150,170 155,165 155,160
           C155,155 150,150 145,145
           C140,140 135,135 135,130
           C135,125 140,120 145,115
           C150,110 155,105 155,100
           C155,95 150,90 145,85
           C140,80 132,75 130,65
           C128,55 130,45 125,35
           C120,25 110,20 100,20z" 
           fill="#1a2a3a" />
  
  <!-- Pipe -->
  <path d="M55,115 
           C50,115 45,120 45,125
           C45,130 50,135 55,135
           C60,135 65,130 70,130
           C75,130 80,135 85,135
           C90,135 95,130 95,125
           C95,120 90,115 85,115
           C80,115 75,120 70,120
           C65,120 60,115 55,115z" 
           fill="#1a2a3a" />
  
  <!-- Hat -->
  <path d="M70,35 
           C70,30 80,25 100,25
           C120,25 130,30 130,35
           C130,40 125,45 120,45
           C115,45 110,40 100,40
           C90,40 85,45 80,45
           C75,45 70,40 70,35z" 
           fill="#1a2a3a" />
  
  <!-- Magnifying Glass -->
  <circle cx="145" cy="145" r="15" fill="none" stroke="#ffffff" stroke-width="3" />
  <line x1="135" y1="155" x2="120" y2="170" stroke="#ffffff" stroke-width="3" />
  
  <!-- IP Text -->
  <text x="70" y="95" font-family="Arial" font-size="24" font-weight="bold" fill="#ffffff">IP</text>
</svg>
